<svg id="Layer_1" data-name="Layer 1" xmlns="http://www.w3.org/2000/svg" viewBox="0 0 976.49 945.88"><defs><style>.cls-1{fill:#d37435;}</style></defs><title>ZSLP</title><path class="cls-1" d="M1030.44,565.94c-.4,3.11-.88,6.22-1.18,9.34-1.71,18.19-2.68,36.48-5.18,54.56-6.35,46-20.17,89.79-40.29,131.53Q926.71,879.81,817,952.54c-1.36.9-2.78,1.72-4.76,2.94-.17-2-.38-3.4-.39-4.8,0-16.16.06-32.33-.17-48.49-.06-3.92,1.24-6.38,4.3-8.75q87.53-67.82,131.34-169.56A421.38,421.38,0,0,0,977.06,616.6a413.16,413.16,0,0,0,3.45-81.69c-4.77-83.32-31.25-159.28-80.84-226.55C837.36,223.86,754.8,169.19,652.51,145.23c-21.4-5-43.54-7.77-65.49-9.32a427.61,427.61,0,0,0-65.82.08c-82.12,6.95-156.19,35.64-221.58,85.92q-88.18,67.81-131.94,170.3c-1.83,4.3-4,5.52-8.51,5.43-14.66-.3-29.33-.13-44-.16a8.06,8.06,0,0,1-1.54-.47c.52-1.66.94-3.35,1.58-5q86.57-217.26,309.67-287.43a397.57,397.57,0,0,1,84.47-16.34c10.77-.94,21.57-1.41,32.35-2.19A48.74,48.74,0,0,0,547.5,85h18a88,88,0,0,0,9.31,1.15,418.78,418.78,0,0,1,74.67,8.46c85.43,17.28,161.08,54.57,225.18,113.68q145.43,134.12,154.62,332.33c.12,2.79.76,5.55,1.16,8.33Z" transform="translate(-53.95 -85)"/><path class="cls-1" d="M547.5,1030.88a63.37,63.37,0,0,0-7.29-1.16q-197.26-8.78-331.43-153.61C150.41,813.2,113.12,738.94,95.22,655.05A416.72,416.72,0,0,1,85.78,576c-.12-6.49-.39-13-.84-19.46-.34-4.87,1.33-6.84,6.51-6.71,12.15.32,24.33.35,36.48,0,5.24-.16,6.37,1.7,6.3,6.61-.8,58.7,10.13,115.3,34.17,168.76q85.67,190.5,288.09,244.14c40.55,10.69,82,13.57,123.7,11.7a415.55,415.55,0,0,0,80.71-12c1.76-.43,4.5,0,5.74,1.1,12.24,11.29,24.27,22.82,36.34,34.3a25.38,25.38,0,0,1,2,2.73c-13.23,3.58-25.78,7.27-38.48,10.34a417.42,417.42,0,0,1-72.78,11.16c-7.47.46-15,.74-22.42,1.21a51.54,51.54,0,0,0-5.82,1Z" transform="translate(-53.95 -85)"/><path class="cls-1" d="M773.05,1025.71l-34.63-33c-6.75-6.44-13.36-13-20.29-19.28a12,12,0,0,1-4.34-9.91q.24-72.23.09-144.46-.09-157.21-.3-314.42a15,15,0,0,1,4.85-11.77c17.36-17,34.4-34.4,51.75-51.46a11.64,11.64,0,0,1,7.29-3.15c20.82-.18,41.66-.33,62.48.13,37.76.84,68.35,29.72,72.3,67.09,2,19.33,1.22,38.08-9.41,54.94-16,25.34-38.45,40.07-69.21,40.23-13,.07-26-.11-39,.11-3.95.07-5.25-1.23-5.21-5.14q.25-21.24,0-42.49c0-3.6,1.14-5,4.84-5.1,9.3-.31,18.67-.41,27.86-1.68,15.55-2.15,22.73-12.09,21.67-28.6-.91-14.17-11-23.84-25.54-24.07-13.49-.22-27,.09-40.49-.15-4.31-.08-5.44,1.61-5.4,5.55.13,13.5,0,27,0,40.49q0,44.74,0,89.48.29,194.93.61,389.86C773.06,1020.67,773.05,1022.47,773.05,1025.71Z" transform="translate(-53.95 -85)"/><path class="cls-1" d="M415.57,438.62,251.74,603c2.23.12,4.09.3,5.94.3,38,0,76,.08,114-.07,4.26,0,5.86,1,5.77,5.52-.27,14.49-.23,29,0,43.49.06,4.2-1.35,5.33-5.45,5.32q-85-.18-170,0c-4.25,0-5.37-1.37-5.34-5.43q.25-30.49,0-61a11.4,11.4,0,0,1,3.61-8.8q40.27-40.67,80.35-81.53c1.59-1.62,3.12-3.31,4.68-5l-.4-1.58H54.21L54,492.86c.84-.94,1.63-1.92,2.51-2.8C73,473.6,89.58,457.19,106,440.64a10.69,10.69,0,0,1,8.36-3.33c52.65.09,105.31-.07,158,.1,46.27.15,92.54.63,138.81,1C412.1,438.39,413.05,438.48,415.57,438.62Z" transform="translate(-53.95 -85)"/><path class="cls-1" d="M596.95,438.37c-17.6,18-35.24,36.19-53.07,54.16-1.38,1.39-4.16,1.92-6.29,1.93-25,.13-50,.07-75,.09-8.63,0-12.92,2.72-14.17,8.89A13.65,13.65,0,0,0,458.72,519c7.67,1.88,15.69,2.53,23.6,3.15,29.88,2.32,53.88,22.8,60.33,51.77,8,36.12-16.17,74.08-52.45,82a64.57,64.57,0,0,1-13.34,1.52c-26.83.14-53.66,0-80.48.14-3.92,0-5.62-.77-5.54-5.19.26-14.66.22-29.33,0-44-.06-3.94,1.07-5.17,5.08-5.14,24.66.17,49.32.1,74,.08,8.66,0,14.54-5.58,14.92-14,.37-8.16-4.9-13-13.63-13.89-9.87-1-20.22-1.24-29.38-4.52-27.59-9.9-44.07-29.62-47.05-59.33-3.75-37.42,23-69.22,60.87-72.29,10.6-.86,21.28-.85,31.92-.88C524.22,438.31,560.88,438.37,596.95,438.37Z" transform="translate(-53.95 -85)"/><path class="cls-1" d="M619.18,439.6v6.18q0,75.24,0,150.48c0,7,0,7,6.83,7,22.16,0,44.33.11,66.49-.08,4.28,0,5.82,1,5.73,5.55-.28,14.16-.22,28.33,0,42.49.05,4-.87,5.55-5.22,5.53q-64-.22-128,0c-3.84,0-5.18-1-5.17-5.06.13-49.83.06-99.65.18-149.48A9.58,9.58,0,0,1,562.3,496c18.13-18.4,36.43-36.62,54.7-54.89A22.83,22.83,0,0,1,619.18,439.6Z" transform="translate(-53.95 -85)"/></svg>