<?xml version="1.0" encoding="utf-8"?>
<!-- Generator: Adobe Illustrator 21.0.0, SVG Export Plug-In . SVG Version: 6.00 Build 0)  -->
<svg version="1.1" id="Layer_1" xmlns="http://www.w3.org/2000/svg" xmlns:xlink="http://www.w3.org/1999/xlink" x="0px" y="0px"
	 viewBox="0 0 396 146" style="enable-background:new 0 0 396 146;" xml:space="preserve">
<style type="text/css">
	.st0{fill:url(#Oval_2_);}
	.st1{opacity:0.5;fill:url(#Oval-Copy_1_);enable-background:new    ;}
	.st2{opacity:0.25;fill:url(#Oval-Copy-2_1_);enable-background:new    ;}
	.st3{fill:url(#Oval_3_);}
	.st4{fill:#D37435;}
</style>
<title>Group 5</title>
<desc>Created with Sketch.</desc>
<g id="Page-1">
	<g id="Desktop-HD" transform="translate(-614.000000, -263.000000)">
		<g id="Group">
			
				<linearGradient id="Oval_2_" gradientUnits="userSpaceOnUse" x1="37.3193" y1="492.5073" x2="37.3193" y2="493.5073" gradientTransform="matrix(85.4995 -76.9841 76.9851 85.5006 -40394.418 -38947.9219)">
				<stop  offset="3.603492e-03" style="stop-color:#D37435;stop-opacity:0"/>
				<stop  offset="1" style="stop-color:#D37435"/>
			</linearGradient>
			<ellipse id="Oval" class="st0" cx="750.6" cy="331.5" rx="57.5" ry="57.5"/>
			
				<linearGradient id="Oval-Copy_1_" gradientUnits="userSpaceOnUse" x1="37.4322" y1="493.5331" x2="37.1438" y2="492.1893" gradientTransform="matrix(85.4995 -76.9841 76.9851 85.5006 -40435.1641 -38947.9219)">
				<stop  offset="0" style="stop-color:#D37435;stop-opacity:0"/>
				<stop  offset="1" style="stop-color:#D37435"/>
			</linearGradient>
			<ellipse id="Oval-Copy" class="st1" cx="709.8" cy="331.5" rx="57.5" ry="57.5"/>
			
				<linearGradient id="Oval-Copy-2_1_" gradientUnits="userSpaceOnUse" x1="36.9291" y1="492.614" x2="37.5655" y2="493.2553" gradientTransform="matrix(85.4995 -76.9841 76.9851 85.5006 -40473.5117 -38947.9219)">
				<stop  offset="0" style="stop-color:#D37435;stop-opacity:0"/>
				<stop  offset="1" style="stop-color:#D37435"/>
			</linearGradient>
			<ellipse id="Oval-Copy-2" class="st2" cx="671.5" cy="331.5" rx="57.5" ry="57.5"/>
			
				<linearGradient id="Oval_3_" gradientUnits="userSpaceOnUse" x1="-107.1101" y1="502.9651" x2="-107.7935" y2="504.0374" gradientTransform="matrix(127.0283 0 0 127.0441 14475.7168 -63653.4727)">
				<stop  offset="0" style="stop-color:#FFFFFF"/>
				<stop  offset="1" style="stop-color:#FFFFFF"/>
			</linearGradient>
			<ellipse id="Oval_1_" class="st3" cx="811.7" cy="336.3" rx="63.5" ry="63.5"/>
			<g>
				<path class="st4" d="M887.3,337.2c-0.1,0.5-0.1,0.9-0.2,1.4c-0.3,2.8-0.4,5.5-0.8,8.3c-1,7-3.1,13.6-6.1,19.9
					c-5.8,12-14.2,21.6-25.3,29c-0.2,0.1-0.4,0.3-0.7,0.4c0-0.3-0.1-0.5-0.1-0.7c0-2.5,0-4.9,0-7.4c0-0.6,0.2-1,0.7-1.3
					c8.9-6.9,15.5-15.4,19.9-25.7c2.2-5.2,3.7-10.6,4.5-16.3c0.6-4.1,0.8-8.3,0.5-12.4c-0.7-12.6-4.7-24.2-12.3-34.4
					c-9.5-12.8-22-21.1-37.5-24.7c-3.2-0.8-6.6-1.2-9.9-1.4c-3.3-0.2-6.7-0.3-10,0c-12.5,1.1-23.7,5.4-33.6,13
					c-8.9,6.9-15.6,15.5-20,25.8c-0.3,0.7-0.6,0.8-1.3,0.8c-2.2,0-4.4,0-6.7,0c0,0-0.1,0-0.2-0.1c0.1-0.3,0.1-0.5,0.2-0.8
					c8.8-22,24.4-36.5,47-43.6c4.2-1.3,8.5-2.1,12.8-2.5c1.6-0.1,3.3-0.2,4.9-0.3c0.3,0,0.6-0.1,0.9-0.2c0.9,0,1.8,0,2.7,0
					c0.5,0.1,0.9,0.2,1.4,0.2c3.8,0.1,7.6,0.5,11.3,1.3c13,2.6,24.4,8.3,34.2,17.2c14.7,13.6,22.6,30.4,23.5,50.4
					c0,0.4,0.1,0.8,0.2,1.3C887.3,335.5,887.3,336.4,887.3,337.2z"/>
				<path class="st4" d="M814,407.7c-0.4-0.1-0.7-0.2-1.1-0.2c-19.9-0.9-36.7-8.7-50.3-23.3c-8.9-9.5-14.5-20.8-17.2-33.5
					c-0.8-3.9-1.4-7.9-1.4-12c0-1-0.1-2-0.1-3c-0.1-0.7,0.2-1,1-1c1.8,0,3.7,0.1,5.5,0c0.8,0,1,0.3,1,1c-0.1,8.9,1.5,17.5,5.2,25.6
					c8.7,19.3,23.2,31.6,43.7,37c6.2,1.6,12.4,2.1,18.8,1.8c4.1-0.2,8.2-0.8,12.2-1.8c0.3-0.1,0.7,0,0.9,0.2
					c1.9,1.7,3.7,3.5,5.5,5.2c0.1,0.1,0.1,0.2,0.3,0.4c-2,0.5-3.9,1.1-5.8,1.6c-3.6,0.9-7.3,1.5-11,1.7c-1.1,0.1-2.3,0.1-3.4,0.2
					c-0.3,0-0.6,0.1-0.9,0.2C815.8,407.7,814.9,407.7,814,407.7z"/>
				<path class="st4" d="M848.2,406.9c-1.9-1.8-3.6-3.4-5.3-5c-1-1-2-2-3.1-2.9c-0.5-0.4-0.7-0.9-0.7-1.5c0-7.3,0-14.6,0-21.9
					c0-15.9,0-31.8,0-47.7c0-0.7,0.2-1.3,0.7-1.8c2.6-2.6,5.2-5.2,7.8-7.8c0.3-0.3,0.7-0.5,1.1-0.5c3.2,0,6.3,0,9.5,0
					c5.7,0.1,10.4,4.5,11,10.2c0.3,2.9,0.2,5.8-1.4,8.3c-2.4,3.8-5.8,6.1-10.5,6.1c-2,0-3.9,0-5.9,0c-0.6,0-0.8-0.2-0.8-0.8
					c0-2.1,0-4.3,0-6.4c0-0.5,0.2-0.8,0.7-0.8c1.4,0,2.8-0.1,4.2-0.3c2.4-0.3,3.4-1.8,3.3-4.3c-0.1-2.1-1.7-3.6-3.9-3.7
					c-2,0-4.1,0-6.1,0c-0.7,0-0.8,0.2-0.8,0.8c0,2,0,4.1,0,6.1c0,4.5,0,9,0,13.6c0,19.7,0.1,39.4,0.1,59.1
					C848.2,406.2,848.2,406.5,848.2,406.9z"/>
				<path class="st4" d="M794,317.9c-8.4,8.4-16.6,16.6-24.8,24.9c0.3,0,0.6,0,0.9,0c5.8,0,11.5,0,17.3,0c0.6,0,0.9,0.1,0.9,0.8
					c0,2.2,0,4.4,0,6.6c0,0.6-0.2,0.8-0.8,0.8c-8.6,0-17.2,0-25.8,0c-0.6,0-0.8-0.2-0.8-0.8c0-3.1,0-6.2,0-9.2
					c0-0.5,0.2-0.9,0.5-1.3c4.1-4.1,8.1-8.2,12.2-12.4c0.2-0.2,0.5-0.5,0.7-0.8c0-0.1,0-0.2-0.1-0.2c-11.7,0-23.3,0-35,0
					c0-0.1,0-0.1,0-0.2c0.1-0.1,0.2-0.3,0.4-0.4c2.5-2.5,5-5,7.5-7.5c0.4-0.4,0.8-0.5,1.3-0.5c8,0,16,0,24,0c7,0,14,0.1,21.1,0.1
					C793.5,317.9,793.6,317.9,794,317.9z"/>
				<path class="st4" d="M821.5,317.9c-2.7,2.7-5.3,5.5-8,8.2c-0.2,0.2-0.6,0.3-1,0.3c-3.8,0-7.6,0-11.4,0c-1.3,0-2,0.4-2.1,1.3
					c-0.2,1,0.4,2.1,1.6,2.4c1.2,0.3,2.4,0.4,3.6,0.5c4.5,0.4,8.2,3.5,9.2,7.9c1.2,5.5-2.5,11.2-8,12.4c-0.7,0.1-1.3,0.2-2,0.2
					c-4.1,0-8.1,0-12.2,0c-0.6,0-0.9-0.1-0.8-0.8c0-2.2,0-4.4,0-6.7c0-0.6,0.2-0.8,0.8-0.8c3.7,0,7.5,0,11.2,0
					c1.3,0,2.2-0.8,2.3-2.1c0.1-1.2-0.7-2-2.1-2.1c-1.5-0.1-3.1-0.2-4.5-0.7c-4.2-1.5-6.7-4.5-7.1-9c-0.6-5.7,3.5-10.5,9.2-11
					c1.6-0.1,3.2-0.1,4.8-0.1C810.5,317.9,816,317.9,821.5,317.9z"/>
				<path class="st4" d="M824.9,318.1c0,0.4,0,0.7,0,0.9c0,7.6,0,15.2,0,22.8c0,1.1,0,1.1,1,1.1c3.4,0,6.7,0,10.1,0
					c0.6,0,0.9,0.2,0.9,0.8c0,2.1,0,4.3,0,6.4c0,0.6-0.1,0.8-0.8,0.8c-6.5,0-12.9,0-19.4,0c-0.6,0-0.8-0.1-0.8-0.8
					c0-7.6,0-15.1,0-22.7c0-0.3,0.1-0.7,0.3-0.9c2.7-2.8,5.5-5.6,8.3-8.3C824.6,318.2,824.7,318.2,824.9,318.1z"/>
			</g>
		</g>
	</g>
</g>
</svg>
